<mxfile host="Electron" modified="2024-05-13T00:43:46.255Z" agent="Mozilla/5.0 (X11; Linux x86_64) AppleWebKit/537.36 (KHTML, like Gecko) draw.io/24.2.5 Chrome/120.0.6099.109 Electron/28.1.0 Safari/537.36" etag="rYzketEBJcQAQ_Y-gsW2" version="24.2.5" type="device">
  <diagram name="Page-1" id="ASzdR2K4lp8sceqfkvw2">
    <mxGraphModel dx="1114" dy="851" grid="1" gridSize="5" guides="1" tooltips="1" connect="1" arrows="1" fold="1" page="1" pageScale="1" pageWidth="850" pageHeight="1100" background="#ffffff" math="0" shadow="0">
      <root>
        <mxCell id="0" />
        <mxCell id="1" parent="0" />
        <mxCell id="iQiyRGZ0toG0-9nE7kbg-16" value="AWS Cloud" style="points=[[0,0],[0.25,0],[0.5,0],[0.75,0],[1,0],[1,0.25],[1,0.5],[1,0.75],[1,1],[0.75,1],[0.5,1],[0.25,1],[0,1],[0,0.75],[0,0.5],[0,0.25]];outlineConnect=0;gradientColor=none;html=1;whiteSpace=wrap;fontSize=12;fontStyle=0;container=1;pointerEvents=0;collapsible=0;recursiveResize=0;shape=mxgraph.aws4.group;grIcon=mxgraph.aws4.group_aws_cloud_alt;strokeColor=#232F3E;fillColor=default;verticalAlign=top;align=left;spacingLeft=30;fontColor=#232F3E;dashed=0;spacing=0;" parent="1" vertex="1">
          <mxGeometry x="35" y="300" width="325" height="360" as="geometry" />
        </mxCell>
        <mxCell id="iQiyRGZ0toG0-9nE7kbg-17" value="Region" style="points=[[0,0],[0.25,0],[0.5,0],[0.75,0],[1,0],[1,0.25],[1,0.5],[1,0.75],[1,1],[0.75,1],[0.5,1],[0.25,1],[0,1],[0,0.75],[0,0.5],[0,0.25]];outlineConnect=0;gradientColor=none;html=1;whiteSpace=wrap;fontSize=12;fontStyle=0;container=1;pointerEvents=0;collapsible=0;recursiveResize=0;shape=mxgraph.aws4.group;grIcon=mxgraph.aws4.group_region;strokeColor=#00A4A6;fillColor=none;verticalAlign=top;align=left;spacingLeft=30;fontColor=#147EBA;dashed=1;" parent="iQiyRGZ0toG0-9nE7kbg-16" vertex="1">
          <mxGeometry x="25" y="20" width="280" height="320" as="geometry" />
        </mxCell>
        <mxCell id="iQiyRGZ0toG0-9nE7kbg-18" value="Availability Zone A" style="fillColor=none;strokeColor=#147EBA;dashed=1;verticalAlign=top;fontStyle=0;fontColor=#147EBA;whiteSpace=wrap;html=1;align=center;spacingTop=-3;" parent="iQiyRGZ0toG0-9nE7kbg-17" vertex="1">
          <mxGeometry x="20" y="20" width="240" height="200" as="geometry" />
        </mxCell>
        <mxCell id="iQiyRGZ0toG0-9nE7kbg-21" value="Directory" style="sketch=0;points=[[0,0,0],[0.25,0,0],[0.5,0,0],[0.75,0,0],[1,0,0],[0,1,0],[0.25,1,0],[0.5,1,0],[0.75,1,0],[1,1,0],[0,0.25,0],[0,0.5,0],[0,0.75,0],[1,0.25,0],[1,0.5,0],[1,0.75,0]];outlineConnect=0;fontColor=#232F3E;fillColor=#8C4FFF;strokeColor=#ffffff;dashed=0;verticalLabelPosition=bottom;verticalAlign=top;align=center;html=1;fontSize=12;fontStyle=0;aspect=fixed;shape=mxgraph.aws4.resourceIcon;resIcon=mxgraph.aws4.cloud_directory;spacingBottom=0;spacingTop=-4;" parent="iQiyRGZ0toG0-9nE7kbg-17" vertex="1">
          <mxGeometry x="200" y="40" width="40" height="40" as="geometry" />
        </mxCell>
        <mxCell id="iQiyRGZ0toG0-9nE7kbg-22" value="Availability Zone B" style="fillColor=none;strokeColor=#147EBA;dashed=1;verticalAlign=top;fontStyle=0;fontColor=#147EBA;whiteSpace=wrap;html=1;align=center;spacingTop=-3;" parent="iQiyRGZ0toG0-9nE7kbg-17" vertex="1">
          <mxGeometry x="20" y="220" width="240" height="80" as="geometry" />
        </mxCell>
        <mxCell id="iQiyRGZ0toG0-9nE7kbg-23" value="Directory" style="sketch=0;points=[[0,0,0],[0.25,0,0],[0.5,0,0],[0.75,0,0],[1,0,0],[0,1,0],[0.25,1,0],[0.5,1,0],[0.75,1,0],[1,1,0],[0,0.25,0],[0,0.5,0],[0,0.75,0],[1,0.25,0],[1,0.5,0],[1,0.75,0]];outlineConnect=0;fontColor=#232F3E;fillColor=#8C4FFF;strokeColor=#ffffff;dashed=0;verticalLabelPosition=bottom;verticalAlign=top;align=center;html=1;fontSize=12;fontStyle=0;aspect=fixed;shape=mxgraph.aws4.resourceIcon;resIcon=mxgraph.aws4.cloud_directory;spacingTop=-4;" parent="iQiyRGZ0toG0-9nE7kbg-17" vertex="1">
          <mxGeometry x="120" y="240" width="40" height="40" as="geometry" />
        </mxCell>
        <mxCell id="iQiyRGZ0toG0-9nE7kbg-25" value="RDS" style="sketch=0;outlineConnect=0;fontColor=#232F3E;gradientColor=none;fillColor=#C925D1;strokeColor=none;dashed=0;verticalLabelPosition=bottom;verticalAlign=top;align=center;html=1;fontSize=12;fontStyle=0;aspect=fixed;pointerEvents=1;shape=mxgraph.aws4.rds_mariadb_instance;" parent="iQiyRGZ0toG0-9nE7kbg-17" vertex="1">
          <mxGeometry x="200" y="120" width="40" height="40" as="geometry" />
        </mxCell>
        <mxCell id="iQiyRGZ0toG0-9nE7kbg-27" value="EKS" style="fillColor=none;strokeColor=#5A6C86;dashed=1;verticalAlign=top;fontStyle=0;fontColor=#5A6C86;whiteSpace=wrap;html=1;align=center;" parent="iQiyRGZ0toG0-9nE7kbg-17" vertex="1">
          <mxGeometry x="40.58" y="40" width="121.17" height="160" as="geometry" />
        </mxCell>
        <mxCell id="iQiyRGZ0toG0-9nE7kbg-28" value="" style="sketch=0;points=[[0,0,0],[0.25,0,0],[0.5,0,0],[0.75,0,0],[1,0,0],[0,1,0],[0.25,1,0],[0.5,1,0],[0.75,1,0],[1,1,0],[0,0.25,0],[0,0.5,0],[0,0.75,0],[1,0.25,0],[1,0.5,0],[1,0.75,0]];outlineConnect=0;fontColor=#232F3E;fillColor=#ED7100;strokeColor=#ffffff;dashed=0;verticalLabelPosition=bottom;verticalAlign=top;align=center;html=1;fontSize=12;fontStyle=0;aspect=fixed;shape=mxgraph.aws4.resourceIcon;resIcon=mxgraph.aws4.eks_cloud;" parent="iQiyRGZ0toG0-9nE7kbg-17" vertex="1">
          <mxGeometry x="40.58" y="40" width="20" height="20" as="geometry" />
        </mxCell>
        <mxCell id="iQiyRGZ0toG0-9nE7kbg-45" style="rounded=0;orthogonalLoop=1;jettySize=auto;html=1;startArrow=classic;startFill=1;" parent="iQiyRGZ0toG0-9nE7kbg-17" source="iQiyRGZ0toG0-9nE7kbg-10" target="iQiyRGZ0toG0-9nE7kbg-25" edge="1">
          <mxGeometry relative="1" as="geometry" />
        </mxCell>
        <mxCell id="iQiyRGZ0toG0-9nE7kbg-10" value="Web&amp;nbsp; App" style="sketch=0;outlineConnect=0;fontColor=#232F3E;gradientColor=none;fillColor=#ED7100;strokeColor=none;dashed=0;verticalLabelPosition=bottom;verticalAlign=top;align=center;html=1;fontSize=12;fontStyle=0;aspect=fixed;pointerEvents=1;shape=mxgraph.aws4.container_2;" parent="iQiyRGZ0toG0-9nE7kbg-17" vertex="1">
          <mxGeometry x="82.34" y="80" width="37.66" height="24.32" as="geometry" />
        </mxCell>
        <mxCell id="iQiyRGZ0toG0-9nE7kbg-42" value="Automation" style="sketch=0;outlineConnect=0;fontColor=#232F3E;gradientColor=none;fillColor=#ED7100;strokeColor=none;dashed=0;verticalLabelPosition=bottom;verticalAlign=top;align=center;html=1;fontSize=12;fontStyle=0;aspect=fixed;pointerEvents=1;shape=mxgraph.aws4.container_2;" parent="iQiyRGZ0toG0-9nE7kbg-17" vertex="1">
          <mxGeometry x="82.34" y="137.84000000000003" width="37.66" height="24.32" as="geometry" />
        </mxCell>
        <mxCell id="iQiyRGZ0toG0-9nE7kbg-35" value="Admin PC" style="rounded=0;whiteSpace=wrap;html=1;align=left;fillColor=default;verticalAlign=top;spacingLeft=29;spacingTop=-3;" parent="1" vertex="1">
          <mxGeometry x="400" y="475" width="160" height="185" as="geometry" />
        </mxCell>
        <mxCell id="iQiyRGZ0toG0-9nE7kbg-89" style="rounded=0;orthogonalLoop=1;jettySize=auto;html=1;targetPerimeterSpacing=0;" parent="1" source="iQiyRGZ0toG0-9nE7kbg-40" edge="1">
          <mxGeometry relative="1" as="geometry">
            <mxPoint x="365" y="575" as="targetPoint" />
          </mxGeometry>
        </mxCell>
        <mxCell id="iQiyRGZ0toG0-9nE7kbg-94" value="API" style="edgeLabel;html=1;align=center;verticalAlign=top;resizable=0;points=[];" parent="iQiyRGZ0toG0-9nE7kbg-89" vertex="1" connectable="0">
          <mxGeometry x="0.3412" relative="1" as="geometry">
            <mxPoint as="offset" />
          </mxGeometry>
        </mxCell>
        <mxCell id="iQiyRGZ0toG0-9nE7kbg-40" value="hashicorp/aws" style="rounded=0;whiteSpace=wrap;html=1;" parent="1" vertex="1">
          <mxGeometry x="432.5" y="565" width="95" height="20" as="geometry" />
        </mxCell>
        <mxCell id="iQiyRGZ0toG0-9nE7kbg-38" value="" style="shape=image;html=1;verticalLabelPosition=bottom;verticalAlign=top;imageAspect=1;aspect=fixed;image=data:image/svg+xml,PHN2ZyB4bWxucz0iaHR0cDovL3d3dy53My5vcmcvMjAwMC9zdmciIGZpbGw9Im5vbmUiIHZpZXdCb3g9IjAgMCA2NCA2NCIgaGVpZ2h0PSI4MDBweCIgd2lkdGg9IjgwMHB4Ij48cGF0aCBmaWxsPSIjNDA0MEIyIiBkPSJNMzguMDYgMjYuMTUxdjExLjQ3M0w0OCAzMS44OTFWMjAuNDA2bC05Ljk0IDUuNzQ1eiIvPjxwYXRoIGZpbGw9IiM1QzRFRTUiIGQ9Im0yNy4wMyAyMC40MDYgOS45NCA1Ljc0NXYxMS40NzNsLTkuOTQtNS43NFYyMC40MDd6TTE2IDE0djExLjQ3OWw5Ljk0IDUuNzR2LTExLjQ4TDE2IDE0em0xMS4wMyAzMC42MjQgOS45NCA1Ljc0di0xMS40OGwtOS45NC01LjczOXYxMS40OHoiLz48L3N2Zz4=;" parent="1" vertex="1">
          <mxGeometry x="395" y="470" width="40" height="40" as="geometry" />
        </mxCell>
        <mxCell id="iQiyRGZ0toG0-9nE7kbg-46" value="GitHub" style="rounded=0;whiteSpace=wrap;html=1;align=left;fillColor=default;verticalAlign=top;spacingLeft=29;spacingTop=-3;" parent="1" vertex="1">
          <mxGeometry x="600" y="475" width="160" height="185" as="geometry" />
        </mxCell>
        <mxCell id="iQiyRGZ0toG0-9nE7kbg-47" value="" style="dashed=0;outlineConnect=0;html=1;align=center;labelPosition=center;verticalLabelPosition=bottom;verticalAlign=top;shape=mxgraph.weblogos.github" parent="1" vertex="1">
          <mxGeometry x="600" y="475" width="25" height="25" as="geometry" />
        </mxCell>
        <mxCell id="iQiyRGZ0toG0-9nE7kbg-49" value="project-mcgruff" style="rounded=1;whiteSpace=wrap;html=1;labelPosition=center;verticalLabelPosition=top;align=center;verticalAlign=bottom;fillColor=none;" parent="1" vertex="1">
          <mxGeometry x="620" y="515" width="120" height="125" as="geometry" />
        </mxCell>
        <mxCell id="iQiyRGZ0toG0-9nE7kbg-53" value="terraform.tf" style="whiteSpace=wrap;html=1;shape=mxgraph.basic.document;verticalAlign=top;spacingTop=8;" parent="1" vertex="1">
          <mxGeometry x="640" y="535" width="80" height="80" as="geometry" />
        </mxCell>
        <mxCell id="iQiyRGZ0toG0-9nE7kbg-73" value="Duo" style="rounded=0;whiteSpace=wrap;html=1;align=left;fillColor=default;verticalAlign=top;spacingLeft=49;spacingTop=-3;" parent="1" vertex="1">
          <mxGeometry x="100" y="121" width="200" height="160" as="geometry" />
        </mxCell>
        <mxCell id="iQiyRGZ0toG0-9nE7kbg-74" value="" style="shape=image;html=1;verticalLabelPosition=bottom;verticalAlign=top;imageAspect=1;aspect=fixed;image=data:image/svg+xml,PHN2ZyB4bWxucz0iaHR0cDovL3d3dy53My5vcmcvMjAwMC9zdmciIHZpZXdCb3g9IjAgMCAxMzMyLjUyIDQyOS45MzMzMiIgaGVpZ2h0PSI0MjkuOTMzMzIiIHdpZHRoPSIxMzMyLjUyIiB4bWw6c3BhY2U9InByZXNlcnZlIiBpZD0ic3ZnMjkiIHZlcnNpb249IjEuMSI+PG1ldGFkYXRhIGlkPSJtZXRhZGF0YTM1Ij5pbWFnZS9zdmcreG1sPC9tZXRhZGF0YT48ZGVmcyBpZD0iZGVmczMzIi8+PGcgdHJhbnNmb3JtPSJtYXRyaXgoMS4zMzMzMzMzLDAsMCwtMS4zMzMzMzMzLDAsNDI5LjkzMzMzKSIgaWQ9ImczNyI+PGcgdHJhbnNmb3JtPSJzY2FsZSgwLjEpIiBpZD0iZzM5Ij48cGF0aCBpZD0icGF0aDQxIiBzdHlsZT0iZmlsbDojN2JjZDU0O2ZpbGwtb3BhY2l0eToxO2ZpbGwtcnVsZTpub256ZXJvO3N0cm9rZTpub25lIiBkPSJNIDE2MTIuMjUsLTAuMDExNzE4OCBIIC0wLjAwMzkwNjI1IFYgMTUzMS42MyBIIDMyMjIuNDkgQyAzMTgwLjQ4LDY3OC42NiAyNDc1LjYzLC0wLjAxMTcxODggMTYxMi4yNSwtMC4wMTE3MTg4Ii8+PHBhdGggaWQ9InBhdGg0MyIgc3R5bGU9ImZpbGw6IzYzYzQzZjtmaWxsLW9wYWNpdHk6MTtmaWxsLXJ1bGU6bm9uemVybztzdHJva2U6bm9uZSIgZD0iTSAxNjEyLjI1LDMyMjQuNDkgSCAtMC4wMDM5MDYyNSBWIDE2OTIuODYgSCAzMjIyLjQ5IGMgLTQyLjAxLDg1Mi45NiAtNzQ2Ljg2LDE1MzEuNjMgLTE2MTAuMjQsMTUzMS42MyIvPjxwYXRoIGlkPSJwYXRoNDUiIHN0eWxlPSJmaWxsOiM2M2M0M2Y7ZmlsbC1vcGFjaXR5OjE7ZmlsbC1ydWxlOm5vbnplcm87c3Ryb2tlOm5vbmUiIGQ9Im0gODM4My42OCwzMjI0LjQ5IGMgLTg2My4zOCwwIC0xNTY4LjIzLC02NzguNjcgLTE2MTAuMjMsLTE1MzEuNjMgaCAzMjIwLjQ4IGMgLTQyLjAxLDg1Mi45NiAtNzQ2Ljg2LDE1MzEuNjMgLTE2MTAuMjUsMTUzMS42MyIvPjxwYXRoIGlkPSJwYXRoNDciIHN0eWxlPSJmaWxsOiM3YmNkNTQ7ZmlsbC1vcGFjaXR5OjE7ZmlsbC1ydWxlOm5vbnplcm87c3Ryb2tlOm5vbmUiIGQ9Ik0gODM4My42OCwtMC4wMTE3MTg4IEMgNzUyMC4zLC0wLjAxMTcxODggNjgxNS40NSw2NzguNjYgNjc3My40NSwxNTMxLjYzIEggOTk5My45MyBDIDk5NTEuOTIsNjc4LjY2IDkyNDcuMDcsLTAuMDExNzE4OCA4MzgzLjY4LC0wLjAxMTcxODgiLz48cGF0aCBpZD0icGF0aDQ5IiBzdHlsZT0iZmlsbDojNjNjNDNmO2ZpbGwtb3BhY2l0eToxO2ZpbGwtcnVsZTpub256ZXJvO3N0cm9rZTpub25lIiBkPSJNIDMzODUuNzIsMzIyNC40OSBWIDE2MTIuMjQgQyAzMzg1LjcyLDc0OC44NTkgNDA2NC4zOSw0NC4wMTE3IDQ5MTcuMzYsMiBWIDMyMjQuNDkgSCAzMzg1LjcyIi8+PHBhdGggaWQ9InBhdGg1MSIgc3R5bGU9ImZpbGw6IzdiY2Q1NDtmaWxsLW9wYWNpdHk6MTtmaWxsLXJ1bGU6bm9uemVybztzdHJva2U6bm9uZSIgZD0iTSA2NjEwLjIyLC0wLjAxMTcxODggSCA1MDc4LjU4IFYgMzIyNC40OSBIIDY2MTAuMjIgViAxNjEyLjI0IC0wLjAxMTcxODgiLz48L2c+PC9nPjwvc3ZnPg==;perimeterSpacing=0;imageBorder=default;strokeWidth=0;" parent="1" vertex="1">
          <mxGeometry x="100" y="121" width="46.48" height="15" as="geometry" />
        </mxCell>
        <mxCell id="iQiyRGZ0toG0-9nE7kbg-81" style="edgeStyle=orthogonalEdgeStyle;rounded=0;orthogonalLoop=1;jettySize=auto;html=1;startArrow=classic;startFill=1;" parent="1" source="iQiyRGZ0toG0-9nE7kbg-77" target="iQiyRGZ0toG0-9nE7kbg-80" edge="1">
          <mxGeometry relative="1" as="geometry" />
        </mxCell>
        <mxCell id="iQiyRGZ0toG0-9nE7kbg-77" value="SSO" style="shape=image;verticalLabelPosition=bottom;labelBackgroundColor=default;verticalAlign=top;aspect=fixed;imageAspect=0;image=data:image/png,iVBORw0KGgoAAAANSUhEUgAAAHYAAABPCAYAAAA+0jF0AAAABHNCSVQICAgIfAhkiAAAABl0RVh0U29mdHdhcmUAZ25vbWUtc2NyZWVuc2hvdO8Dvz4AAAAtdEVYdENyZWF0aW9uIFRpbWUAV2VkIDAzIEFwciAyMDI0IDA1OjAxOjQzIFBNIENEVJ6ntzwAACAASURBVHic7Z13mB7Fnec/VdX9hskzmqg8ygIRRDAYG2PZa5K9wHkdFh7b63PgfHif9dq7d76984Xn7rnzPTit18YY8J7NmeUWB2yCF4TBgEEgbBGEAGWNNKM8UZPe0F1V90d19/vOjMKMRkIi/PS03pbe7q7q+tYv/6peYa21vEkofpX4Uwgx5vOtRN6p7sDxkjEmObfWIqU8IpDW2hLogACklK9XV08JiTcSxxpjjgiMxWLQ7m9tkEoiEIBAoaLzsuutxRiDEOJNCfIbAlhtDFiLUir5v4LO0d3TR293HwP9I/Ts66Wvb4AgHzA0MoxSiqqqSvyUR1NLI3UNVdQ11NDUPIO6+jqyXjZ5Vsz9Qog3jdg+rYHVxozhzpHCMDt3dbJt0y42PL+J7Z272N6xg1yYR3kSaQXCSlAgjMVYixCgMejQUpmqYMmCRcydM5ulKxaybMUC5s6ZTW1lLVAC+M3AwaclsMYYjLF4nuPQzn2dbHhlM2ufeIF1z79E/2gfftonXW9JNwqqZisyzQK/CqQSCCRWOL1qAktxEPIHDMP7NEG/oNhvKeY0NdlaVp5zDpdctpKzVy6nfdZ8ALTWb3gRfdoBq7VORO7e7r2sWbOOB3/xGK9t30SmyiPdYmlamaKuXZGqBVUJwlosFoHAAtYaB4p1ulcKiQCsgGAE8v2G4U5L7/qA0QOW3IBmyfyFXH3NKt556QUsmN0OQBAE+L5/6gZjGnRaARtqjacUhaDAU2uf5Z47H+SlV18hWy9pXunReK5HplWgfIPWYA2YojOosIBx4EkhMLHLE/8lQAkBElRKIJVAB4Jcj6X3RUPP+oCR/YZF7e18+IYr+JNVl1FXVZcYWG803XtaAFuu27Z37eDuu3/FvXc/TGWbT/M5Hq3vUmSahLOKQ4EJDNYKEI4bERYhcagKZ/EmQFhnR1trsZGHZKxFSoGQoNIO5HwfdK817H++wOhew/uvfBfXf+Jazj3jnAl+8RuBTjmw5frs939Ywx3fv5stOzqoWwRzr0pRPVditMEEYDSARSoZ+a4Caw0OOBxnjn8bQeLoCOG4HCmwxjpRHT1H+hblK0YPwP4nNPv+ENDU2MDnbrqea6/4INaCsRolFW8EOqXAusCBQUrFPff/glu++VNCv8icVSlaLlUoz6CLDlAhAAkSgaUEZoylSE7GN0LExSR6VlgQEowBKQVaW4QlEtMgpKDnj5aOh/LoAcmnv/BRPvupT+JJD2PMG8KoOmXAWmvRRuMpj9vu+jG333w3lbMUCz+WoX65wBRBFx0aQkag2ETaOqCORzLaErgJ4NFzjHFfCmnxqyRD2y0d9xUZ2Gb46Ceu4K9vuomUn0oiXacznRJgrbWEWuN7Hrfd9X/40Xd+Rs1cycLrU1TOAZ2PRKaIxGc0+JYSICemHyVQnV6WiT7FgF8J+X7YcU9I3wbDR/7iCr78l19ECYmQYkI063SiUxIr1hGo/3z/L7njm/dQu9Bjyad9Mg0QjkZGbBlDxGJWRNbtiaJy+0pEjcQTCWEpDkO6TrDg4x5g+MVdD1FVWckXPvuZ096get3lSRiGeJ7HE88+xfdu/jGVLYqFN3ikGyDMTQQvkScncfzGGNDuDCElQkEwYknXwoKPS2oXe9z1k1/x4MOPOJ/51DsUR6TXFVitNVJKOjp38t1v30Goiiz8hE9lm8QUynoTcehx69HjpJLYd9a2EA7cMAeZOmj/iIdXBT+87U42bduKEIIgCAiCkDDUBGFIGIZjMk+nil43YOPUmRCSb//wVro6DjDvGp/aBZIwb0sAllm3p0LKHQnc4oilaqZg3jU+vXsH+O73fgjC4vs+vu/heQrf8/A8DyGkA/wUgvy66VitNZ7nce/D97Pm1y/S+j6PtgtSmMB9H7ssCZeeQCNpqjQBXFwQIxixNJ4Lh97l88Ka1/j+HbezZOkiwsBFzFpbW6irq6WluYmM77JH1lqCMEQphXwdZ+rrYhUbY7DWcrCnh7/80lfZ272Ps2/KUNEiCYs2CfudDqCW0/j+WG3x0oL8ILz0zRy5/ZbaxiqMtkghqK2pIetXUD+jkqXnt3P+xefwjnPOI+NnMcY4o/F1ij2/LsDGBtMtP7mdH3/7V7TfoJj9bt+BOg7I11uvHoviwEYcqgTwfEnvxoB8Ny5FaAU6sOhRyPVZCv2Gkb2GGtHA/GUtfODaS/nI1deilJeMxcmmkw5sbDDtPbCXL37h7+izB1lxY5ZUNejQASsAE/XidAJ1PAnh4tUCgUyB9KLkQBSatFqiixCMGEa6DP3bQga2GIIuxcpVS/jsv/4EF5xz3usC7kmfOsYYlFI8/Nij7NnRzYJP+KTrLGGhPOIz1m897SiSKMYYpJAYazFFMAUbRUxwiQhhEQoy9YLsDEn9WSly+2DP03nW/eFV9nb+PZ//4vV86P1XEYQBvnfyxPJJHU4LKKUo6AKPPvQMqTmGhmUKrHD5UyESv/U0dgkTNSGEwFjjkg/YJB3ovpcYbbEhBAVDkDdgLJWzYPFHMyy9Pk1P7iDf+Z//yK8ffgDf89Fan7Qun1RgwzBESslLr65n3+YeGs5QZOoFRpcaNsZx7uksgsvJieMoLTimz66ADoErpBMSq3EAW2g6X7H0z9PkUkPc+g8/5am1T6OUIgzDk9LPky4ArbU8+fiz5OQo9Ys8hHTWJZG+igMRbxgqt5TLDmtdKtAmBoMrAJBSYEKLzlvqlkgWfyzNwPAg373lDnr6+hFCnBTOPanAymhWv/LSFtKzLJVtyg1AlAh3tcBvHG4FypK7Y49YpYgoe4QVpbizq9IhzEPjMsW8q1LsfPEAd9z1Y5RSE1LIJ4JOGrBh5JTv2L2D/Vv6qZ6tSNWA0SZp1cQz/M1EsYRO3suCiYMeFh1A8wWS6rMsj973DFt2bsdT6oRz7UkDNvaitm7fQaFYpKIRpOeklBQyClqUjMo3I5WyRo6khDC0+BXQ9u4UA93D/MvqhwGSGq0TRSddx/Ye7MdUFEk1Spcwj0SxlHLczH7zUSyKS+HSSDkbQV27R0W75clH/0gQBihZlgs+AXTSgI1n6s6dXRRlgUytdLokCopba99YuvU4KbYh4lyAlKA1+NXQcKZH97YBNmx5FSnlCRXHJwxYi6vcN1oTRukrrTVdHfvxqwReRVzaUqo4e9Pp1yOQTSx/ly0yxiAkVLSAlYbNm7dG1504jp1W5Cle2ASudFRFdUASkpBZqEP8rESqqAQUl7rD2hNa5nI6U2kuS1e8F4XZKpoUpiags2Mf4IrbTxQdN7Bx2WhctZ8r5tmyfSudnV1seG0zezr3EoQBrz63HTUvBOEjUAhCoiLDtwSoMTm1k8QmwUhSFQqRyrOro8tdQ8mnjYvUj7f0ZsrAxhyqlMJay/Mvv8hvVv+WdU9voG/PIKHVGBkiKyHdKFBzNdULBMKzpUh/guwkKE6ZRUs4Dn+JRcTli5N83mTbtuJI7UY9Gv+8pJJy7Bdx94SQGBEiEKgUZBok3b3d9A/3U52tGrOiEDjuctcpZXfKG3lize/5x//7/9j2fBdaazKLDDXtgtp5PpkGiZ+RKA+ssiANKiURwlXjCxUVbE+qh0TRnjivN3aw42CHxU4sFj/K8ybbdlzbFLc/ZpUBTGw3uif5Pr6+DGdjLcoXhEOCl/5+hOEXofXcempqaqifWcnyFUu59KKLWLHsDDKZTKLyxoN+1K5PBtjyctHN27byrVu+z4bfb8OkQ2a8Q9BydpqKWYJUhXAzM85dWlfUbUwEhMUF0RGu5ESICQMVNYgVwi22shYrLCaqZDjiYCOQQib3lZvcCfhRgToiuvYYbRtrkmSFK1x0z3VD5pCSyLJ3MRhrMFhEbEtE7cf9dgLPxZXDnGX3MwWCQXdtcdAysssSdguUr2hd1Mg1117OdVdeSUPDDLTR7j0nwcHHBLZ8UdJdv/wZP7r1bkb6czReLJmzKkVli1uyiBHo0Cax1JJ4jAcKV2YiFaEJKJqRww9sNGBuDC1KpPFFGiU8BBJNmEQ1kkpBITAmpGBGozqliaIzbisls1hrKZrRZOAPf60kLStQ0itZq7H0QCKFh7YhgclRMEMYG5KWNaRkheurwK2wLytTLdUul/ooVMnfpSAo5iDXZ+jbEtD7gqa4V1I7N8uNn/8UH7v2ukkvEjsqsLHoHRwc4lu3fp+Hfv4UlS2S2f9K0rBEIgXo0BV3Swna2mgJRjxbYwVZspZCW6TSq6W1Yi4SNZbz4qWQyQyXDIf99Bb3cKh4gKIZos6bjy/SDuC4n1aT8bK0ZReghJcUoZUmSamNA7kupFS0ZOeiTVAm5uNrI5cEzf7RXYyGw9HCL8fFUqQY1r2M6n1UeW3MzC6mJTMHT6TpKexhb24rfcEufKqp8WYCGhv9kVGf4kCFc31cWU0ca5YKEBZjoTgIPS8H7HksJOiTXHLlufyHv/oyba3NaGMSL2RKwMag9vT18r++9W2eWv0CM87yaP8zRbYewmKEFxYhHYe5RVI2EUuxUrGAtZq0rORAYTuXNl/HJ8/6EimZQlsd6aAogp4A4W4MdEBoQg7lB3jpwHOsOXAfe/IbaPSWYQgRQjAaDDOvdgFfWvkNsn6GQAcJp7kcqsYTHkr43Pnqd0h7Ga5fdhP5cAQh1BiVoE2Ir3yCMOSWl7/Gxt71VPm1TkQj6Q02cVbdB7is7ToWNSyjIl1JxssghSIXjlIICuwd7GTN3t/yVM8/USVmkVZZtA2AUmJAJCI9nlMRB8cqW7pF3Mqz5Hph98Oa/WtDFpwzi6/9u7/hrOXLj2pYHdYqNlojlaJvoI+b/+F7PP3wizSf77HgBg/lWYI8UUoqDpOV6VXiz5KoKD+zViOEwsPHkynUYcVxiVLKGQ+1mXrm1rXzvvlX80jHvdzf9QOqVRtS+JH/J0mJNAoPpfyxBk5ZG57wUdFr+zKNjIBNrhUpN9JSufAnGo8UI6YfIwyfW3ozl839YPTuZYYRUOFVUeFVUZdp4MyWlbyn+2p+tPG/058/SJU/w4FbZr0n7Za9fhx1FBZ0YDEBZOph4Z/7pBqh46HdfP3mb/O1r/4NZyxbNmaheDlNgNsYg1SK0ITc9pM7eeI3z9F6kceiGzyktIR5d5d7sVifMglLMxY/UY0QNjFmxh9mzLkTZVprQhNSmarmw0s/zU1nfIOiHUGbMBG/seGijXb/jj+tTiol4+fFgCftRNdqozGJ8DSkZAWDuodav4m/Pfc7rJr/QYRwbZiy/lls9G+Djtpb1rSC/3ThrSyrvZhDwX58mY6MynFRpphxI0CTFKB0n2He4TL3co8F16TZtnE33/zeLXTu7kIpRRAERwe2vLF7H3yAe3+6mvplirkfUQgPdNHpgCQlGYuVcbNuMuAKGzvgcsIhx5w7jlJSoYRKBu8dMy/js8u/xkjY7XRTZAgJGHN/6Shrj1jKTGxfRt9ba/FkioIZJisr+eTyL7Nkxgq0W6SLjK6N+xdb5VJIVPR/2mjqMg187uy/ZVZ2CTl9CCX9iUZjwsHuPLHVYpAVEDoObl0lmX9Fig3PbeN7t93haqf8iWU2E4CVUvLypg385NZfUNEiWPBRHy9lCfPGKfay2ZV0ZkpUMo7iNo91CCvcZiHYZOGxxXJe83v40NzPsDf3MmlVDcK5RHZ8ecMYcWLHnY29rvxeT2ToLnRw9fzrWdF4PsbqyNApTYzD9jf6XkmFsZq67AxuWPZXDIVdSNSY+w47QpE4tuWSWjqbxmrLzPcrWi5Q/O6+P3Dvv9yfjEc5JcDGijhXHOVXP3+IgfwAc69Ok2l0FXnlnsF0an/Hz9by0NmRjtgHLDdyrLUoJbhs7p+yrHoVfcF2PJGKfMg4Xll+JC2OOxt7XTwxfJXiYPE1VtRexkWtV0S70AjipZbl4E7oLyVLWwoFFpbPOJv3NX+e3uIOvEgkH9VliVRxOfZCgA0BZZh9uU/NIsV9dz/K9q4deMobI5In6NgX1m/gN/c9Rs1cwYxzFCYgsnhllJ2ZBqjYI87yyRwTdBNQn27ivObz6Cu+iJLe2JE4XoqMhpw+yIrGM6nL1JFw9JT6TKTXnQt1YdslBAwhbCk4cyxKcrpll5oiVMyE5vMUWzt28PDDjzt3qsxCllDGrUGORx54gnS9x5wrUggVYkKiZf0GEXskxzlazsok0UdON5U4p8QzR/kjSufgdP6yGe+k2fsTQhMkunY6JIUrVWnxL2Z5/aUI6WZzrDvjfRsnc0ghUdLdt6D+TNozlzBqBpBCTQpYcOCKsnCANU7fNl3oUdOuWLP6eXbt3YUqK7EZ4+5s3rKVp55aS8UcqJonMMV4IF3oYDoiGJyeBI0UEo1BxSE7iEJ5cEzzOooVuxd0+1fUZxqpTzUS6ICU52Ps9Fe4BbZItV9L2ktTCPORfj2+SROLXSGgLtNE9+AukJXHjB6NfUYJYCHdzjnpGqhbJNi0eht/XLee+dfMTzjbiw0mYw3PP/cKOZtn9sUZkG6bOqkEZlqAxiQwNqBCNnAgt48X967FlylMFKCY7KSJrzORaE57WbqGt0b7VNjISp9eZ611USJDwDO7H2VXfwcFnYuAKEWpJvm0JJRorGYkPIQnUlEAZ/IUu5VxlA/jxqDx3DS9LwteXPMq115zFSkv5Xa1i7vYN9jHS+teI51R1C4Q2DCW2W5XrLLgyHFSHFZT5PUwO4e2oPCi/Q6n/uA4q+JJj+78HkbDwcScnG7COgk6WIFFEhqNsbH4T5y9yXQycV9EFE4SySqIqZsDItK1Ti1KTGjJNErSdbBtUye7du1i8bzFbslqzAJ9PQPs2tdJdp4lVQ1hEJv9Lt02TSbAuQ9pBsNtXFJzNdefeeN0H5jQvuFObl//dXJBjopUJdaGk9ZfhyeBRpNSFXxg/nXMrVl0wvq6e91WOnOvkqE6iktPqVtuakWJBLTAz0LlfOh+5iB7ug6weN5ihAAv5pY9u/ez/+B+5q3MgGcx+SgGjE0eOD2KXBSRIhfmyBVHSHlpt8OpKLkZxxKjFoOISkwszlfcNbSRnaPrKAZByZeUopTqmyJZa0jJNAfznXQNbWdWdTtahwgia3YS/Sx/VhxAOZTvo3N4K1lZE6mgqYj06HkiklZCYLTBk5Jso2RvMMrOjt3wbidxEmD7uwdIZ3yqWj2ssRgDvud2RYMpt39YipMDSiqU9FDSQ4qpiWJr4qRDKYC+69Am9hVeYevARtrq2iLxN4WqivFtCIOHR3+4hR0Dc7lk5hWuZgsHUNyHST3LljYp6xzsYF/hVVpTZ1A0eeQkn1FOiVciRSSODdlGj1S1ZqB7MHEpJUBIwP79fVgNfj1goo0mo6LuEwFq0rFx/tukfdjo2hi02NLsyR3glZ4NzPDOZM3BXxIEIVKIJGt0tAjP0chgyKoKXjj4JD0jB5PARHkfjtT/pK9ln6EJWbPnITzhO6kjSgmUqQ1gFFcg3nBM4leD8iyHekcICZBSRsDqkIG+AcDiVYhoBZxr9KSUiE7hmXHVRJKwxonYOL/19O6H2DH8Ai3p+WwbfIEnu37jkgIYDKWk9Fho42BiGSCUPgWS0IS0pFayffg1ntx9X2LklYv38iR6+ecY0LFIqXhh31qe6bmfxtRSApOP+nV8doAVrmoM6VBWvuvb6PAoxkaxbDdYEmFVsseglJHIEyd+7zFrx+qnYzn4VtjEkgQ38907KZ7f/wyru+6hPjUbISS+reWBztvZ0vMavnQuhcsUWVfWUmo1+rusrbLgR2y1FuwgTZm5PLb71zy757EkyB+aMJkI48Oc5SU4Fqd2Og918POt36fGayG0uYT7j1cUxn6/FNEKv+hRoyN5RnJ5Nz7RcGOjlUOxfo312AkI0CU04cVtKdV1xMO4NJiNeNBTHkoqXjrwHHdt/gZa5EmLDAU9SsbLkgsMP974dV7rfiHS4bGhZROQ7bjnG1N2HvfLQGgCfLJYWeCfN3+HZ/f8DmvBU16SejRGuyNK/Zk4+yMVUih2DGzmjg3/g96gk6ysisKL03Md3RyN1ulK4fS9hYrKDJVZt1uNB66UtKIq7YrGooC/4yxOYFF3JMowUZjNJcMV6tjPL/v+UO4Qa/c9woMdPyVnB6jzZpHXQwih0NZQ4VVyML+bH7zyNT684HNc0PwBarLVyf1KengR4FKlJjQVaSc8AZ70yZthmlPzORTs5s6NN7N7aBuXzb6G5srWif1WpcjUUH6YF7qf5IEdd9Fd6KAp1U5eDycx9+Px3QEigxgpwWgLUmACB1JVdSVKuOd77mUUDY0NWCEIR6KbrMWXKprB0488uXWxBoVHaEJGglFSOs3hi89iOeF0WkHnGSoeYsuh51nfvYaXe/5AhVdBnTeLnB5EST9qw6JtgVq/heGwm59s+t+8ePBZzmo+nyU1F1Ll15IPR7HWcih3iILOJ/Hf2IWJdaixlkAH+CJFTg9Q6TVTMIP8uuNHbOxbx4rGC1jecBF16RY84QEu+T6qh9gy8Ec29q7n5Z61KE/SlGonp4fGlOtMLXpVNjKRoR9vyQtQPARh0VJRm0Hiig68OAHQ1FKPDjUj+zQ1iwRSRPsznRAf1s1QbYtUqyZ2DW/mnzZ9w/mjsYFT9qqWePmHQFvLUGGAgUI/e0a3YxihJb0MiyWvh5LEddyGRVLUI1SqGVSqGazrfZgXe3/H7OwZVKeqGQwHAdg/uoPAFJN24tZdZZMLo3YXDpDyMoCkqIfxZZbW7EJ2DK/nlUNraNu9lNpUPWkvjRSSQphnpJhjT34jiJDm9CKkcFwvxfRBhcRmRESqxVeKfI+hMKxpnjkDGRl+SRKgta0JX6UY3qMRpBDSlOnE6XOsiFwQT6XoLx5k1771zmqFIzw86r61KOmRlhU0pecghU/BjGAxyDEcUBZsl4rA5pFCMDt7DtoGHAy2s7uQp0q1YG1A18iGKOktE26NExIWgxQ+VaoRFdVASekR2hBtAxpTCxAoBvVB+kc7ExcIIC2raMsuRQpF0YwkZa6ibNpOh1WsLalKt9O6YGS/Jm0zzJnXmoycF9fWtsxsYvG8RXTu2kKYEwgPbOD2248Nyukp/Ciwbg1pmWVm9szIlzt6gMJGs8pYTWBy2AgwF30aywGxSMVGgQQLufAQQkjqvbkIoQhMDkEFNX7LGECS9rAI62qlA5PH2jCxYmWUBHATy5KVtVR5jdH2BM56N2iKdhSrXTxXClUCZJoGS7lhL5AIaQlzMLJXMKdlNu0L5wAuBuHFgzKjvoHlyxayefUmhvcaatsFOjCRG3BiOLaUNdEUzNBxPCOqV4oHMulUmftU5vc6V8YNbNGMjrk21EOTGOKxFRMWojokt2hb2yJaFw5zl0TEJTzR5Cllho6fyjGwxuB5ksEuS+6AZslF82lrakv6KkUUYUp7ac6/5CzQku51gXN+owfFFYnTiqtDwlHCHr6I7VhHxIxR7ProgzQ+WDC+qO3wBW8TC+DGlMEkf5VPnMP0szygIsQx+zoZisc/SQlLQAr6Xg2wQx4rLzmDlJdOtmAakzlecdYyli1azOBWKPQIPF+4AqqoVCSRetOgmKOO8+Yp33rcbsUx7j/Wc6fbbjmVJ9mNAaz77aB8N/Rv0rTPm8eF568c066EuJ7J0ljXyFXXvo/RHs3+NQEqFc++Us3TCQ9FvU1HpwjURFpGPrBQcOC5IqNdgvdceQFtjU4Mx8XjY6sUheTSSy9i8aJ29j8fMrjT4mdw2fqo5okTIJLfpimQKHEsREyWsQx3wsHnNQsXzeNPP3gFUFpAB2XAKqUwxtDS0MwnP/NhZC7Fnkc1OhCoSCQnbYlIIr8N8MmjMRwa/duA8t2vnOx9MkSNZPn4X3yQ1hmtE5Z6HHaJx3suuYQrP3QpvetD9j0GIuP2ByxbZzXmd2vephNL9jBj69ShQGUEB562dD+nWXXlRbz/Pe897G4zY4CNdW1FpoIbb/wUZ65cTOfqPPsft3iV0UoxHTU45bU7b9MxKY4qRVZ1HDK0OnJSsoLuZ2HnAwUWnDGbG2/8FFUVVQATFmZN4FilFNpomuqb+PdfvYn5S+aw/b4CB542eJUC6bmGjCnZUQn3Rp17m6ZGSTGIKFVIiCh7Y7RF+qAqBN3PGrbcladldiP/5b9+hbbGtmRrw/F02EJZKSSh1ixbsJSvfOVGmmc2sO1nBfb9FoQv8DKAjirdTSkwXdogMupsfMDbgJePQ9n4JFLPRovGBYmLaQ14WQEKDvwett5ToHl2A//5v32ZMxYtJwiCI+5LccSFzy4n6Ta0WPfyS3zrmz+gY9NuWi9O0Xa5Jdso0HkwYcSuAoQSMKYm6W3/6MhUCoMa48Su0e7nUwUW4YGfVeR6LHseMRxcGzBnUSt/9x//mpVnnp1w6hH97CMBCyRlI1JKdu7ZxQ9vu5PHVz9LuhnmfiDNjHPdlja6YLEh6GjZfbz+T4xn5bcyxiXWjEKiDsD4hxLBIJREKvDSgiAn6HvZ0rW6QP4QrHrvxfybf/tJ2me3T2ofimNuLlIO7sDQAI/89nHuuP1uRoZHqZwDre/2qVsiSVW5+K0OQGi3H0X8Em9lPA9HNqp3EghQEiGM++EIKymMWgY3w54n8uT2CSqrKvn8jTdw+eXvpa6qjlCHyVqgo9Gk93mKf2YbYOO2zax+8HHu/fVvCI3Br7DUr1TULVRUtEjStRJkVIERZ1ze8vCWZZtt6dyEUOwX5Lot/VuK9G8whHmB76X4s+uu5qoPrWJxuytYn8qvf0x5A69YBBTCPNu2d7D2mZd49LEn2bptOynPx6sQyJQhVStJtwhUOq6eOL6lHG8WSt5fWMIhSzDsfgUkOAQ2UASjGisNyxYsZtX7LuXCd57N4oUL8ZU/RmpOlqb8uzvjGzEYDnQfpLNjD9u2dLB9+y6279zJ3v37CcMgWvpP2YLktyaNkVnC4nkplJS0z5vPE1EFoQAAAGFJREFUvHmzmTOrjTPPWkrLzEaaZjQltVeT3ddpPB33DyodbhYZNPl8nuHRUfKjBXRg3nZzDkcSlHI7wlZUVVCRzZLyU5Qn28bXLE+Vpv1LWaXbxbST8W91Kl/hMF219f8B599g+4i8W4oAAAAASUVORK5CYII=;" parent="1" vertex="1">
          <mxGeometry x="120" y="165" width="67.22" height="45" as="geometry" />
        </mxCell>
        <mxCell id="iQiyRGZ0toG0-9nE7kbg-80" value="MFA" style="shape=image;verticalLabelPosition=bottom;labelBackgroundColor=default;verticalAlign=top;aspect=fixed;imageAspect=0;image=data:image/png,iVBORw0KGgoAAAANSUhEUgAAADUAAABKCAYAAAAbkhxkAAAABHNCSVQICAgIfAhkiAAAABl0RVh0U29mdHdhcmUAZ25vbWUtc2NyZWVuc2hvdO8Dvz4AAAAtdEVYdENyZWF0aW9uIFRpbWUAV2VkIDAzIEFwciAyMDI0IDA1OjA3OjI5IFBNIENEVJTIGD0AAAddSURBVGiB7Zt7cFTVHcc/cvdys9lHssnGJfLIkgQjqKmATmmntULTVpmmaXWGgRGndrTU2gykdar+006nzGjrxKkKnfAHivUxVC0WSUcBA7YELSFo5CEoj2TzIkknj002m7s3917oH2G3SYHsI/ekhPL96+bMuef3++R37jln7/39rjt//vx5rjLZrBpocDAMQGNT05h2LRJhMDx0yXuys7MAcLtceL1ebLKNNEWZsC8JQ/X29dHW1s6RI0fp6emhKdDM6dONnG4M0HymHabLADgdY52S5cub0HUjdj0Y1mLXxTcXUDSvgMLCArI8meQX5LNg/nzcGW6yPJ64vl433vT7pKGB2toP+fCjAxw5doKe3n4y3E5sNgkARZGxSVJcI8nKME1M8xyGYWIYJkNqBF03mDPLx83zb2Lx4oV89StLuOOO2xODam1t4+2/buf3z24EwO1yYLNJKBcikYhDySiZf8po2IFQGF03eOShVaxfv35MvzFQv13/FE9XVjEzN5sMtyMp5wzTJByOkOF2JAxmkyTCQ5EJRbyjq4cnHitn3dry/4wbvdj29naerqxiQdGclAbXNJ2ane/g9+cR0bT4NwBpikJnZxd3lSzHlp4aVJbHzccfN4xpi0FteflVCubmpjSwYZoU5vvx+/NiziaqGTN8KIqMYZqWPZ8xqIimIUnTUhtEkjjdGKC+/hAFhQVJ3dvW1o6m6TjS01KyfUl/rBrIkZ7GqgceRtf1pO/1Zmda5QZgIRSQ9OIiSqnNtytcCUXKME00LflpZaWSWfbjQhmmyY0F+Xzjzq9hnjs3YedSkTRtGv/Yt5+TZxoTAosLpWk6CxfdRnn5o5Y4mKp6+4IcPf5FQvtZQs+UMergORV0VS4U16Cmiq5BTRVdlVCWnv0upUCgmeMnTqCqERYvWhj7eSJSQqGef2EjG154Lva3pmn8eM1Pefzxxyx5a3Q5CYN66nfPUPXHDaSnp+Pz+bDb7QQCAV7500v09wd5tvIZUabFPFOBQHMM6Fe//g379u1j165d/OG555EkiTff2Ep9/SERpgFBUIePHkFRFPx+P6vvXxVrX37P3ZSUlKAoCu/v2SvCNCAIKjQwiKZpZHhyLtvHkZ4uwjQgCKq4+FYUReHk58f44O/7Yu2BQDM1NTVomsa8eYUiTAOCForiW29h0e1LONxQz88r1vLNkm+Tbleorq7Gbrfj9/tZtmypCNOAwM13U9UG5hXdgqqq7KnZTXV1Naqq4vP52Lz5RaFLujCoLI+Hv+3Yxi+feBJVVQFYsWIF7+zYwezZs0SZBSbhmJST4wVAVVXy5uYLjVBUwqFkm4x54d26JzP+ZxgrJBxKN3SkCy9LotNQtIRDuV0ZsWu73S7aHCDw7Pfa61v54vPj9Pb2YrfbUVV10iIlDKqltZXKykqKiopQFAVVVSctUsKm39ryn3Hy5CnK165Du/C9akpHanAwzK7d72O3p9Hc1Bhrd7mdIsxdJCFQfX19rL5/FTNnzsTpdMamn6En9z04VQmBkmWZ4uJiABRFiU0/m2z9l/xLScgzNWOGj7q6Ourq6lhX8QuCwSDA1I7UGAOyxNDQEN3d3WRlZYk2N2JTtIGy0lJam1vJ9HhYetedos0BkwAFTPpnoKvyZeY1qKmia1BTRf+/ULZxsiuvRMX1VlFkamv/yUNN/9uUg+ZAC4qSWCJlXCibJHG2s4PW9vYJOzYRSdI06zJeYARMRK6sKE3KQmGYZtK5tROR0BWgfyCMruu4XCMpc8FgCFmWhafQCYtUS1sXFeVraDi0n2OfHuTYpwf57PBBKsrX0N0TFGUWEBSpjq4eNm2s5L57vz+m3el0UF7+KLPzZrO24knLMzKjsjxS2rDOPXcvuwhotMpKS/lB2XLCQxGrzQMCoEKhMKtXrYzbr+x7pQyEwlabBwRA6YZJRoYrbr9E+qQqIQuFacRfvvv7Q8g2MXuf5VBul4M/v/Fm3H61tfux263LRR+tGJRp0eboSE9j61s7xs2TqK8/xIsvv25pgv1oxaByvNmYpjWJv7m+bJaXreTd93ZeVPfx7ns7eeBHPyEzU9wzFdunHvzhau6790FuXOC35Jw3Z5aPhx+pYMFNheT5R4piujq6+OTwZ+R4M4WeJceUGm1+aQtVmzbT3RPE5XIkXDM1nqI1T5DcSTsRacM6Z5o6eG3LhjH74kVFYYODYfZ8sJdtf9nOW9t3c73XjcvlsNyhVBRN+lfVCP/qHuC73/k6K1euuGijH7d8r7evjwMH6tizZy/7PzpI/0CIgVAY2SbFVq5oKV+0oidV8OgpPlrJBsRK92SbhMvlIMebzbdKlnLbl4pZsuTLl61PHBfqv9XZ2cXZjrN0dnZx6tRpWlpaCIYGCfUPEAqF6e3rIzw0UikaiQzT3tEz7nhOh4Lv+pH36znebNKUNG6YlYvL4SDL4+GGmbkU5Bcw15+H1+vF6UzsdJ8U1HiKaBqGbjCsDzNdns6wPpzU/dPl6ZaVxFoGdSXp31x8rhsRiJcgAAAAAElFTkSuQmCC;" parent="1" vertex="1">
          <mxGeometry x="240" y="167.5" width="28.65" height="40" as="geometry" />
        </mxCell>
        <mxCell id="iQiyRGZ0toG0-9nE7kbg-83" style="rounded=0;orthogonalLoop=1;jettySize=auto;html=1;entryX=0.5;entryY=1;entryDx=0;entryDy=0;" parent="1" source="iQiyRGZ0toG0-9nE7kbg-10" target="iQiyRGZ0toG0-9nE7kbg-77" edge="1">
          <mxGeometry relative="1" as="geometry" />
        </mxCell>
        <mxCell id="iQiyRGZ0toG0-9nE7kbg-84" style="rounded=0;orthogonalLoop=1;jettySize=auto;html=1;entryX=0;entryY=0;entryDx=0;entryDy=0;entryPerimeter=0;startArrow=classic;startFill=1;" parent="1" source="iQiyRGZ0toG0-9nE7kbg-77" target="iQiyRGZ0toG0-9nE7kbg-21" edge="1">
          <mxGeometry relative="1" as="geometry" />
        </mxCell>
        <mxCell id="iQiyRGZ0toG0-9nE7kbg-90" style="edgeStyle=orthogonalEdgeStyle;rounded=0;orthogonalLoop=1;jettySize=auto;html=1;entryX=1;entryY=0.551;entryDx=0;entryDy=0;entryPerimeter=0;align=center;" parent="1" source="iQiyRGZ0toG0-9nE7kbg-49" target="iQiyRGZ0toG0-9nE7kbg-35" edge="1">
          <mxGeometry relative="1" as="geometry" />
        </mxCell>
        <mxCell id="iQiyRGZ0toG0-9nE7kbg-93" value="Commit" style="edgeLabel;html=1;align=center;verticalAlign=top;resizable=0;points=[];" parent="iQiyRGZ0toG0-9nE7kbg-90" vertex="1" connectable="0">
          <mxGeometry x="0.2804" y="1" relative="1" as="geometry">
            <mxPoint as="offset" />
          </mxGeometry>
        </mxCell>
        <mxCell id="iQiyRGZ0toG0-9nE7kbg-85" value="project-mcgruff" style="rounded=1;whiteSpace=wrap;html=1;labelPosition=center;verticalLabelPosition=top;align=center;verticalAlign=bottom;fillColor=none;" parent="1" vertex="1">
          <mxGeometry x="420" y="517.5" width="120" height="120" as="geometry" />
        </mxCell>
      </root>
    </mxGraphModel>
  </diagram>
</mxfile>
